<svg xmlns="http://www.w3.org/2000/svg" viewBox="0 0 64 64" role="img" aria-label="DK App Tools">
  <defs>
    <linearGradient id="bg" x1="8" y1="6" x2="58" y2="60" gradientUnits="userSpaceOnUse">
      <stop stop-color="#151a20"/>
      <stop offset="0.56" stop-color="#090b0e"/>
      <stop offset="1" stop-color="#050607"/>
    </linearGradient>
    <linearGradient id="gold" x1="14" y1="9" x2="53" y2="56" gradientUnits="userSpaceOnUse">
      <stop stop-color="#fff1b8"/>
      <stop offset="0.48" stop-color="#f0b642"/>
      <stop offset="1" stop-color="#9d651e"/>
    </linearGradient>
    <filter id="glow" x="-20%" y="-20%" width="140%" height="140%">
      <feGaussianBlur stdDeviation="1.1" result="blur"/>
      <feMerge>
        <feMergeNode in="blur"/>
        <feMergeNode in="SourceGraphic"/>
      </feMerge>
    </filter>
  </defs>
  <rect width="64" height="64" rx="12" fill="url(#bg)"/>
  <rect x="4.5" y="4.5" width="55" height="55" rx="10" fill="none" stroke="url(#gold)" stroke-width="3"/>
  <path d="M14 47V17h12.3c9.2 0 15 5.8 15 15s-5.8 15-15 15H14Zm8.1-7h4c4.5 0 7.1-3.1 7.1-8s-2.6-8-7.1-8h-4v16Z" fill="#f5f1e8"/>
  <path d="M38.5 47V17h7.7v12.1L53.7 17h8.1l-9.7 14.3L61.8 47h-8.4l-7.2-12v12h-7.7Z" fill="url(#gold)" filter="url(#glow)"/>
</svg>
